<?xml version="1.0" standalone="no"?>
<!DOCTYPE svg PUBLIC "-//W3C//DTD SVG 20010904//EN"
 "http://www.w3.org/TR/2001/REC-SVG-20010904/DTD/svg10.dtd">
<svg version="1.0" xmlns="http://www.w3.org/2000/svg"
 width="700.000000pt" height="700.000000pt" viewBox="0 0 700.000000 700.000000"
 preserveAspectRatio="xMidYMid meet">
<metadata>
Created by potrace 1.14, written by Peter Selinger 2001-2017
</metadata>
<g transform="translate(0.000000,700.000000) scale(0.100000,-0.100000)"
fill="#000000" stroke="none">
<path d="M737 6990 c-337 -57 -599 -290 -704 -627 l-28 -88 0 -2775 0 -2775
28 -88 c95 -304 300 -509 604 -604 l88 -28 2775 0 2775 0 88 28 c304 95 509
300 604 604 l28 88 0 2775 0 2775 -28 88 c-95 304 -300 509 -604 604 l-88 28
-2745 1 c-1510 1 -2767 -2 -2793 -6z m4481 -1285 c232 -52 423 -238 483 -473
19 -75 20 -120 20 -1732 0 -1612 -1 -1657 -20 -1732 -59 -231 -238 -410 -468
-468 -76 -20 -112 -20 -1733 -20 -1621 0 -1657 0 -1733 20 -230 58 -409 237
-468 468 -19 75 -20 120 -20 1732 0 1612 1 1657 20 1732 55 216 218 389 431
460 60 21 91 23 405 28 187 3 941 4 1675 3 1180 -2 1343 -4 1408 -18z"/>
<path d="M1885 5281 c-69 -17 -116 -55 -151 -121 -16 -30 -19 -64 -22 -237
l-4 -203 286 0 286 0 0 285 0 285 -182 -1 c-101 -1 -196 -4 -213 -8z"/>
<path d="M2720 4505 l0 -785 780 0 780 0 0 785 0 785 -780 0 -780 0 0 -785z"/>
<path d="M4720 5006 l0 -286 286 0 286 0 -4 203 c-3 183 -5 206 -25 242 -24
46 -54 75 -103 101 -30 16 -64 19 -237 22 l-203 4 0 -286z"/>
<path d="M1710 4000 l0 -280 285 0 285 0 0 280 0 280 -285 0 -285 0 0 -280z"/>
<path d="M4720 4000 l0 -280 285 0 285 0 0 280 0 280 -285 0 -285 0 0 -280z"/>
<path d="M1710 3000 l0 -280 285 0 285 0 0 280 0 280 -285 0 -285 0 0 -280z"/>
<path d="M2720 2495 l0 -785 780 0 780 0 0 785 0 785 -780 0 -780 0 0 -785z"/>
<path d="M4720 3000 l0 -280 285 0 285 0 0 280 0 280 -285 0 -285 0 0 -280z"/>
<path d="M1712 2078 c3 -174 6 -208 22 -238 26 -49 55 -79 101 -103 36 -20 59
-22 243 -25 l202 -4 0 286 0 286 -286 0 -286 0 4 -202z"/>
<path d="M4720 1994 l0 -286 203 4 c183 3 206 5 242 25 46 24 75 54 101 103
16 30 19 64 22 238 l4 202 -286 0 -286 0 0 -286z"/>
</g>
</svg>
